<svg width="30" height="30" viewBox="0 0 30 30" fill="none" xmlns="http://www.w3.org/2000/svg">
<path d="M19.0594 20.1375L21.1594 18.0375C21.4422 17.7582 21.8001 17.567 22.1895 17.4871C22.5789 17.4072 22.9832 17.4421 23.3531 17.5875L25.9125 18.6094C26.2864 18.7611 26.607 19.0202 26.8339 19.3539C27.0608 19.6875 27.1838 20.0809 27.1875 20.4844V25.1719C27.1853 25.4464 27.1276 25.7176 27.0179 25.9692C26.9081 26.2207 26.7486 26.4475 26.5489 26.6358C26.3492 26.8242 26.1134 26.9701 25.8559 27.0649C25.5983 27.1597 25.3241 27.2014 25.05 27.1875C7.11563 26.0719 3.49688 10.8844 2.8125 5.07188C2.78073 4.78645 2.80976 4.49752 2.89767 4.22411C2.98559 3.9507 3.13039 3.699 3.32257 3.48557C3.51474 3.27214 3.74993 3.10182 4.01265 2.98582C4.27538 2.86981 4.55969 2.81075 4.84688 2.81251H9.375C9.77907 2.8137 10.1735 2.93576 10.5077 3.16297C10.8418 3.39019 11.1003 3.71217 11.25 4.08751L12.2719 6.64688C12.4221 7.01538 12.4604 7.41998 12.3821 7.81014C12.3037 8.2003 12.1121 8.55872 11.8313 8.84063L9.73125 10.9406C9.73125 10.9406 10.9406 19.125 19.0594 20.1375Z" fill="white"/>
</svg>
