<svg width="64" height="64" viewBox="0 0 64 64" fill="none" xmlns="http://www.w3.org/2000/svg">
<path d="M5.58534 29.564C5.55337 29.1958 5.59829 28.825 5.71724 28.4751C5.83618 28.1252 6.02657 27.8038 6.27631 27.5314C6.52605 27.2589 6.82969 27.0414 7.16796 26.8925C7.50624 26.7437 7.87176 26.6668 8.24134 26.6667H13.3333C14.0406 26.6667 14.7189 26.9476 15.219 27.4477C15.7191 27.9478 16 28.6261 16 29.3333V54.6667C16 55.3739 15.7191 56.0522 15.219 56.5523C14.7189 57.0524 14.0406 57.3333 13.3333 57.3333H10.4453C9.77792 57.3335 9.13469 57.0834 8.6427 56.6324C8.15072 56.1814 7.84574 55.5623 7.78801 54.8973L5.58534 29.564V29.564ZM24 28.5C24 27.3853 24.6933 26.388 25.7 25.9133C27.8987 24.876 31.644 22.792 33.3333 19.9747C35.5107 16.3427 35.9213 9.78135 35.988 8.27868C35.9973 8.06801 35.992 7.85735 36.02 7.64935C36.3813 5.04535 41.4067 8.08668 43.3333 11.3027C44.38 13.0467 44.5133 15.3387 44.404 17.1293C44.2853 19.044 43.724 20.8933 43.1733 22.7307L42 26.6467H56.476C56.888 26.6467 57.2944 26.7421 57.6634 26.9255C58.0323 27.1089 58.3537 27.3754 58.6024 27.7039C58.851 28.0324 59.0202 28.414 59.0966 28.8189C59.173 29.2238 59.1545 29.6408 59.0427 30.0373L51.8827 55.392C51.7246 55.9512 51.3882 56.4435 50.9247 56.7939C50.4611 57.1443 49.8958 57.3338 49.3147 57.3333H26.6667C25.9594 57.3333 25.2812 57.0524 24.7811 56.5523C24.281 56.0522 24 55.3739 24 54.6667V28.5Z" stroke="#02C39A" stroke-width="5" stroke-linecap="round" stroke-linejoin="round"/>
</svg>
