<svg width="145" height="44" viewBox="0 0 145 44" fill="none" xmlns="http://www.w3.org/2000/svg">
<path d="M31.5572 0.699999C28.2572 1.3 25.4572 5.5 23.0572 13.4C20.8572 20.8 20.8572 20.8 18.2572 13.7C17.4572 11.3 16.8572 11 12.7572 11H8.2572L12.7572 23.6C15.2572 30.6 17.2572 36.4 17.2572 36.6C17.2572 36.8 18.7572 37 20.6572 37H24.1572L28.9572 22.4C32.4572 11.6 34.6572 6.8 37.0572 3.9L40.4572 -5.51343e-07L37.0572 0.0999995C35.2572 0.199999 32.7572 0.499999 31.5572 0.699999Z" fill="#C20E1A"/>
<path d="M14.9572 2.30001C-2.14282 7.60001 -5.44282 31.1 9.55718 40.4C24.1572 49.4 42.1572 39.6 42.2572 22.7C42.2572 16.3 37.7572 6.20001 35.7572 8.20001C34.3572 9.60001 25.6572 37 26.7572 36.7C27.2572 36.5 29.5572 31.1 31.7572 24.8C33.9572 18.4 36.0572 12.9 36.4572 12.5C37.6572 11.2 40.2572 17.9 40.2572 22.4C40.2572 28 38.8572 31.7 35.4572 35.3C29.1572 42 20.4572 43.7 12.5572 39.9C1.05718 34.3 -1.94282 19.9 6.45718 10.4C10.5572 5.80001 14.6572 3.80001 20.7572 3.40001C23.4572 3.20001 25.9572 3.10001 26.2572 3.00001C26.5572 3.00001 26.0572 2.50001 25.2572 2.00001C23.3572 0.700009 19.6572 0.900009 14.9572 2.30001Z" fill="#2C4491"/>
<path d="M83.9572 2.70002C80.3572 3.30002 78.6572 6.10002 75.3572 16.7L72.6572 25.5L70.2572 18.5C67.9572 12 67.5572 11.5 64.5572 11.2L61.3572 10.9L65.6572 23.7C69.5572 35.4 70.1572 36.5 72.4572 36.8C74.9572 37.1 75.2572 36.6 80.2572 21.6C83.0572 13.1 86.0572 5.60002 86.8572 5.00002C88.3572 3.70002 88.7572 1.90002 87.5572 2.10002C87.0572 2.20002 85.5572 2.50002 83.9572 2.70002Z" fill="#2C4491"/>
<path d="M50.2572 24V37H53.7572H57.2572V25.9C57.2572 13.7 56.4572 11 52.7572 11H50.2572V24Z" fill="#2C4491"/>
<path d="M88.2572 23.9V37H91.2572H94.3572L94.0572 24.2L93.7572 11.5L91.0572 11.2L88.2572 10.9V23.9Z" fill="#2C4491"/>
<path d="M100.257 13.4C100.257 15.5 100.857 15.9 103.557 16.2L106.757 16.5L107.057 26.7L107.357 37H110.257H113.157L113.457 26.7L113.757 16.5L117.057 16.2C120.657 15.8 120.657 15.7 119.257 12.9C118.357 11.2 117.057 11 109.257 11C100.357 11 100.257 11 100.257 13.4Z" fill="#2C4491"/>
<path d="M129.157 13.7C126.157 21.6 121.257 35.3 121.257 36.1C121.257 36.6 122.557 37 124.157 37C126.257 37 127.357 36.4 127.757 35C128.657 32.1 135.757 32.1 137.257 35C137.957 36.3 139.357 37 141.357 37C143.057 37 144.257 36.6 144.057 36.1C143.957 35.7 141.757 29.8 139.357 23.1C135.357 12.4 134.657 11 132.557 11C130.957 11 129.857 11.8 129.157 13.7ZM133.057 27.8C130.357 28.3 130.057 27.7 131.357 24.4L132.457 21.5L133.757 24.5C134.957 27.2 134.957 27.5 133.057 27.8Z" fill="#2C4491"/>
</svg>
